<mxfile host="app.diagrams.net" modified="2020-04-06T17:42:00.297Z" agent="5.0 (Windows NT 10.0; Win64; x64) AppleWebKit/537.36 (KHTML, like Gecko) Chrome/80.0.3987.163 Safari/537.36" etag="oQI1GJUUgIIYNZ3zYl5k" version="12.9.8" type="github">
  <diagram id="C5RBs43oDa-KdzZeNtuy" name="Page-1">
    <mxGraphModel dx="782" dy="420" grid="1" gridSize="10" guides="1" tooltips="1" connect="1" arrows="1" fold="1" page="1" pageScale="1" pageWidth="827" pageHeight="1169" math="0" shadow="0">
      <root>
        <mxCell id="WIyWlLk6GJQsqaUBKTNV-0" />
        <mxCell id="WIyWlLk6GJQsqaUBKTNV-1" parent="WIyWlLk6GJQsqaUBKTNV-0" />
        <mxCell id="WIyWlLk6GJQsqaUBKTNV-2" value="" style="rounded=0;html=1;jettySize=auto;orthogonalLoop=1;fontSize=11;endArrow=block;endFill=0;endSize=8;strokeWidth=1;shadow=0;labelBackgroundColor=none;edgeStyle=orthogonalEdgeStyle;" parent="WIyWlLk6GJQsqaUBKTNV-1" source="WIyWlLk6GJQsqaUBKTNV-3" target="WIyWlLk6GJQsqaUBKTNV-6" edge="1">
          <mxGeometry relative="1" as="geometry" />
        </mxCell>
        <mxCell id="WIyWlLk6GJQsqaUBKTNV-3" value="&lt;pre style=&quot;font-family: &amp;#34;consolas&amp;#34; ; font-size: 8.3pt&quot;&gt;&lt;pre style=&quot;background-color: rgb(255 , 234 , 246) ; font-family: &amp;#34;consolas&amp;#34; ; font-size: 8.3pt&quot;&gt;&lt;font color=&quot;#660e7a&quot;&gt;&lt;b&gt;window load start &lt;/b&gt;&lt;/font&gt;&lt;/pre&gt;&lt;/pre&gt;" style="rounded=1;whiteSpace=wrap;html=1;fontSize=12;glass=0;strokeWidth=1;shadow=0;" parent="WIyWlLk6GJQsqaUBKTNV-1" vertex="1">
          <mxGeometry x="165" y="10" width="210" height="40" as="geometry" />
        </mxCell>
        <mxCell id="WIyWlLk6GJQsqaUBKTNV-4" value="Yes" style="rounded=0;html=1;jettySize=auto;orthogonalLoop=1;fontSize=11;endArrow=block;endFill=0;endSize=8;strokeWidth=1;shadow=0;labelBackgroundColor=none;edgeStyle=orthogonalEdgeStyle;entryX=0.5;entryY=0;entryDx=0;entryDy=0;" parent="WIyWlLk6GJQsqaUBKTNV-1" source="WIyWlLk6GJQsqaUBKTNV-6" target="WIyWlLk6GJQsqaUBKTNV-12" edge="1">
          <mxGeometry y="20" relative="1" as="geometry">
            <mxPoint as="offset" />
          </mxGeometry>
        </mxCell>
        <mxCell id="WIyWlLk6GJQsqaUBKTNV-5" value="No" style="edgeStyle=orthogonalEdgeStyle;rounded=0;html=1;jettySize=auto;orthogonalLoop=1;fontSize=11;endArrow=block;endFill=0;endSize=8;strokeWidth=1;shadow=0;labelBackgroundColor=none;entryX=1;entryY=0.5;entryDx=0;entryDy=0;" parent="WIyWlLk6GJQsqaUBKTNV-1" source="WIyWlLk6GJQsqaUBKTNV-6" target="WIyWlLk6GJQsqaUBKTNV-10" edge="1">
          <mxGeometry y="10" relative="1" as="geometry">
            <mxPoint as="offset" />
            <mxPoint x="450" y="440" as="targetPoint" />
            <Array as="points">
              <mxPoint x="520" y="175" />
              <mxPoint x="520" y="475" />
            </Array>
          </mxGeometry>
        </mxCell>
        <mxCell id="WIyWlLk6GJQsqaUBKTNV-6" value="&lt;pre style=&quot;font-family: &amp;#34;consolas&amp;#34; ; font-size: 8.3pt&quot;&gt;&lt;pre style=&quot;font-family: &amp;#34;consolas&amp;#34; ; font-size: 8.3pt&quot;&gt;&lt;span style=&quot;background-color: rgb(120 , 255 , 174)&quot;&gt;&lt;font color=&quot;#121212&quot;&gt;switchUserId ==&lt;/font&gt;&lt;/span&gt;&lt;/pre&gt;&lt;pre style=&quot;font-family: &amp;#34;consolas&amp;#34; ; font-size: 8.3pt&quot;&gt;&lt;span style=&quot;background-color: rgb(120 , 255 , 174)&quot;&gt;&lt;font color=&quot;#121212&quot;&gt; taskAssignId&lt;/font&gt;&lt;/span&gt;&lt;/pre&gt;&lt;/pre&gt;" style="rhombus;whiteSpace=wrap;html=1;shadow=0;fontFamily=Helvetica;fontSize=12;align=center;strokeWidth=1;spacing=6;spacingTop=-4;" parent="WIyWlLk6GJQsqaUBKTNV-1" vertex="1">
          <mxGeometry x="170" y="110" width="200" height="130" as="geometry" />
        </mxCell>
        <mxCell id="WIyWlLk6GJQsqaUBKTNV-10" value="&lt;pre style=&quot;background-color: rgb(255 , 234 , 246) ; font-family: &amp;#34;consolas&amp;#34; ; font-size: 8.3pt&quot;&gt;&lt;span style=&quot;color: #458383&quot;&gt;eligibleForCombine ==true&lt;/span&gt;&lt;/pre&gt;" style="rhombus;whiteSpace=wrap;html=1;shadow=0;fontFamily=Helvetica;fontSize=12;align=center;strokeWidth=1;spacing=6;spacingTop=-4;" parent="WIyWlLk6GJQsqaUBKTNV-1" vertex="1">
          <mxGeometry x="185" y="420" width="170" height="110" as="geometry" />
        </mxCell>
        <mxCell id="WIyWlLk6GJQsqaUBKTNV-11" value="&lt;pre style=&quot;background-color: rgb(255 , 234 , 246) ; font-family: &amp;#34;consolas&amp;#34; ; font-size: 8.3pt&quot;&gt;&lt;span style=&quot;color: #008000 ; background-color: #f7faff ; font-weight: bold&quot;&gt;Consolidate Documents -&amp;gt;disabled  &lt;/span&gt;&lt;/pre&gt;" style="rounded=1;whiteSpace=wrap;html=1;fontSize=12;glass=0;strokeWidth=1;shadow=0;" parent="WIyWlLk6GJQsqaUBKTNV-1" vertex="1">
          <mxGeometry x="145" y="585" width="250" height="30" as="geometry" />
        </mxCell>
        <mxCell id="WIyWlLk6GJQsqaUBKTNV-12" value="&lt;pre style=&quot;background-color: rgb(255 , 234 , 246) ; font-family: &amp;#34;consolas&amp;#34; ; font-size: 8.3pt&quot;&gt;&lt;span style=&quot;color: #008000 ; font-weight: bold&quot;&gt;claimTask&lt;/span&gt; -&amp;gt;&lt;span style=&quot;color: #660e7a ; font-weight: bold&quot;&gt;disabled  &lt;/span&gt;&lt;/pre&gt;" style="rounded=1;whiteSpace=wrap;html=1;fontSize=12;glass=0;strokeWidth=1;shadow=0;" parent="WIyWlLk6GJQsqaUBKTNV-1" vertex="1">
          <mxGeometry x="192.5" y="310" width="155" height="50" as="geometry" />
        </mxCell>
        <mxCell id="CH6t3w1Jz2HbYPV2xJsC-0" value="" style="endArrow=classic;html=1;exitX=0.5;exitY=1;exitDx=0;exitDy=0;" parent="WIyWlLk6GJQsqaUBKTNV-1" source="WIyWlLk6GJQsqaUBKTNV-12" target="WIyWlLk6GJQsqaUBKTNV-10" edge="1">
          <mxGeometry width="50" height="50" relative="1" as="geometry">
            <mxPoint x="370" y="290" as="sourcePoint" />
            <mxPoint x="420" y="240" as="targetPoint" />
          </mxGeometry>
        </mxCell>
        <mxCell id="CH6t3w1Jz2HbYPV2xJsC-6" value="" style="endArrow=classic;html=1;exitX=0.5;exitY=1;exitDx=0;exitDy=0;entryX=0.5;entryY=0;entryDx=0;entryDy=0;" parent="WIyWlLk6GJQsqaUBKTNV-1" source="WIyWlLk6GJQsqaUBKTNV-10" target="WIyWlLk6GJQsqaUBKTNV-11" edge="1">
          <mxGeometry width="50" height="50" relative="1" as="geometry">
            <mxPoint x="370" y="590" as="sourcePoint" />
            <mxPoint x="280" y="580" as="targetPoint" />
          </mxGeometry>
        </mxCell>
        <mxCell id="CH6t3w1Jz2HbYPV2xJsC-7" value="yes" style="text;html=1;strokeColor=none;fillColor=none;align=center;verticalAlign=middle;whiteSpace=wrap;rounded=0;" parent="WIyWlLk6GJQsqaUBKTNV-1" vertex="1">
          <mxGeometry x="270" y="540" width="40" height="20" as="geometry" />
        </mxCell>
        <mxCell id="CH6t3w1Jz2HbYPV2xJsC-8" value="&lt;pre style=&quot;background-color: rgb(255 , 234 , 246) ; font-family: &amp;#34;consolas&amp;#34; ; font-size: 8.3pt&quot;&gt;&lt;span style=&quot;color: #458383&quot;&gt;enableNonStdContractAppLink&lt;/span&gt;==&lt;span style=&quot;color: #008000 ; font-weight: bold&quot;&gt;&#39;false&#39;&lt;/span&gt;&lt;/pre&gt;" style="rhombus;whiteSpace=wrap;html=1;" parent="WIyWlLk6GJQsqaUBKTNV-1" vertex="1">
          <mxGeometry x="124" y="680" width="290" height="90" as="geometry" />
        </mxCell>
        <mxCell id="CH6t3w1Jz2HbYPV2xJsC-10" value="" style="endArrow=classic;html=1;entryX=0.5;entryY=0;entryDx=0;entryDy=0;exitX=0.5;exitY=1;exitDx=0;exitDy=0;" parent="WIyWlLk6GJQsqaUBKTNV-1" source="WIyWlLk6GJQsqaUBKTNV-11" target="CH6t3w1Jz2HbYPV2xJsC-8" edge="1">
          <mxGeometry width="50" height="50" relative="1" as="geometry">
            <mxPoint x="280" y="620" as="sourcePoint" />
            <mxPoint x="420" y="540" as="targetPoint" />
          </mxGeometry>
        </mxCell>
        <mxCell id="CH6t3w1Jz2HbYPV2xJsC-11" value="" style="endArrow=classic;html=1;exitX=0;exitY=0.5;exitDx=0;exitDy=0;" parent="WIyWlLk6GJQsqaUBKTNV-1" source="WIyWlLk6GJQsqaUBKTNV-10" edge="1">
          <mxGeometry width="50" height="50" relative="1" as="geometry">
            <mxPoint x="370" y="590" as="sourcePoint" />
            <mxPoint x="120" y="720" as="targetPoint" />
            <Array as="points">
              <mxPoint x="40" y="480" />
              <mxPoint x="40" y="560" />
              <mxPoint x="40" y="720" />
            </Array>
          </mxGeometry>
        </mxCell>
        <mxCell id="CH6t3w1Jz2HbYPV2xJsC-14" value="NO" style="text;html=1;strokeColor=none;fillColor=none;align=center;verticalAlign=middle;whiteSpace=wrap;rounded=0;" parent="WIyWlLk6GJQsqaUBKTNV-1" vertex="1">
          <mxGeometry x="84" y="500" width="40" height="20" as="geometry" />
        </mxCell>
        <mxCell id="CH6t3w1Jz2HbYPV2xJsC-17" value="" style="endArrow=classic;html=1;exitX=0.5;exitY=1;exitDx=0;exitDy=0;entryX=0.472;entryY=-0.056;entryDx=0;entryDy=0;entryPerimeter=0;" parent="WIyWlLk6GJQsqaUBKTNV-1" source="CH6t3w1Jz2HbYPV2xJsC-8" target="CH6t3w1Jz2HbYPV2xJsC-16" edge="1">
          <mxGeometry width="50" height="50" relative="1" as="geometry">
            <mxPoint x="190" y="790" as="sourcePoint" />
            <mxPoint x="240" y="740" as="targetPoint" />
          </mxGeometry>
        </mxCell>
        <mxCell id="CH6t3w1Jz2HbYPV2xJsC-18" value="yes" style="text;html=1;strokeColor=none;fillColor=none;align=center;verticalAlign=middle;whiteSpace=wrap;rounded=0;" parent="WIyWlLk6GJQsqaUBKTNV-1" vertex="1">
          <mxGeometry x="270" y="780" width="40" height="20" as="geometry" />
        </mxCell>
        <mxCell id="CH6t3w1Jz2HbYPV2xJsC-19" value="&lt;pre style=&quot;background-color: rgb(255 , 234 , 246) ; font-family: &amp;#34;consolas&amp;#34; ; font-size: 8.3pt&quot;&gt;&lt;pre style=&quot;font-family: &amp;#34;consolas&amp;#34; ; font-size: 8.3pt&quot;&gt;&lt;span style=&quot;color: #458383&quot;&gt;disableLPServices&lt;/span&gt;==&lt;span style=&quot;color: #008000 ; font-weight: bold&quot;&gt;&#39;true&#39;&lt;/span&gt;&lt;/pre&gt;&lt;/pre&gt;" style="rhombus;whiteSpace=wrap;html=1;" parent="WIyWlLk6GJQsqaUBKTNV-1" vertex="1">
          <mxGeometry x="165" y="920" width="210" height="80" as="geometry" />
        </mxCell>
        <mxCell id="CH6t3w1Jz2HbYPV2xJsC-20" value="" style="endArrow=classic;html=1;entryX=0.5;entryY=0;entryDx=0;entryDy=0;" parent="WIyWlLk6GJQsqaUBKTNV-1" target="CH6t3w1Jz2HbYPV2xJsC-19" edge="1">
          <mxGeometry width="50" height="50" relative="1" as="geometry">
            <mxPoint x="270" y="850" as="sourcePoint" />
            <mxPoint x="240" y="840" as="targetPoint" />
          </mxGeometry>
        </mxCell>
        <mxCell id="CH6t3w1Jz2HbYPV2xJsC-16" value="&lt;pre style=&quot;background-color: rgb(255 , 234 , 246) ; font-family: &amp;#34;consolas&amp;#34; ; font-size: 8.3pt&quot;&gt;&lt;span style=&quot;color: #008000 ; background-color: #f7faff ; font-weight: bold&quot;&gt;Obtain Non-Standard Contract Approvals -&amp;gt;disabled&lt;/span&gt;&lt;/pre&gt;" style="rounded=1;whiteSpace=wrap;html=1;" parent="WIyWlLk6GJQsqaUBKTNV-1" vertex="1">
          <mxGeometry x="124" y="830" width="312" height="30" as="geometry" />
        </mxCell>
        <mxCell id="CH6t3w1Jz2HbYPV2xJsC-22" value="" style="endArrow=classic;html=1;exitX=1;exitY=0.5;exitDx=0;exitDy=0;entryX=0.97;entryY=0.487;entryDx=0;entryDy=0;entryPerimeter=0;" parent="WIyWlLk6GJQsqaUBKTNV-1" source="CH6t3w1Jz2HbYPV2xJsC-8" target="CH6t3w1Jz2HbYPV2xJsC-19" edge="1">
          <mxGeometry width="50" height="50" relative="1" as="geometry">
            <mxPoint x="414" y="725" as="sourcePoint" />
            <mxPoint x="380" y="960" as="targetPoint" />
            <Array as="points">
              <mxPoint x="530" y="725" />
              <mxPoint x="550" y="725" />
              <mxPoint x="550" y="959" />
            </Array>
          </mxGeometry>
        </mxCell>
        <mxCell id="CH6t3w1Jz2HbYPV2xJsC-23" value="NO" style="text;html=1;strokeColor=none;fillColor=none;align=center;verticalAlign=middle;whiteSpace=wrap;rounded=0;" parent="WIyWlLk6GJQsqaUBKTNV-1" vertex="1">
          <mxGeometry x="460" y="740" width="40" height="20" as="geometry" />
        </mxCell>
        <mxCell id="CH6t3w1Jz2HbYPV2xJsC-24" value="&lt;pre style=&quot;background-color: rgb(255 , 234 , 246) ; font-family: &amp;#34;consolas&amp;#34; ; font-size: 8.3pt&quot;&gt;&lt;span style=&quot;color: #000080 ; background-color: #f7faff ; font-weight: bold&quot;&gt;{&lt;/span&gt;&lt;span style=&quot;background-color: #f7faff&quot;&gt;pc_e2eReviewContract.nonOptimizedServicesLink&lt;/span&gt;&lt;span style=&quot;color: #000080 ; background-color: #f7faff ; font-weight: bold&quot;&gt;} -&amp;gt; disabled&lt;/span&gt;&lt;/pre&gt;" style="rounded=1;whiteSpace=wrap;html=1;" parent="WIyWlLk6GJQsqaUBKTNV-1" vertex="1">
          <mxGeometry x="97.5" y="1060" width="385" height="30" as="geometry" />
        </mxCell>
        <mxCell id="CH6t3w1Jz2HbYPV2xJsC-25" value="" style="endArrow=classic;html=1;exitX=0.5;exitY=1;exitDx=0;exitDy=0;entryX=0.455;entryY=0.189;entryDx=0;entryDy=0;entryPerimeter=0;" parent="WIyWlLk6GJQsqaUBKTNV-1" source="CH6t3w1Jz2HbYPV2xJsC-19" target="CH6t3w1Jz2HbYPV2xJsC-24" edge="1">
          <mxGeometry width="50" height="50" relative="1" as="geometry">
            <mxPoint x="190" y="1200" as="sourcePoint" />
            <mxPoint x="240" y="1150" as="targetPoint" />
          </mxGeometry>
        </mxCell>
        <mxCell id="CH6t3w1Jz2HbYPV2xJsC-26" value="yes" style="text;html=1;strokeColor=none;fillColor=none;align=center;verticalAlign=middle;whiteSpace=wrap;rounded=0;" parent="WIyWlLk6GJQsqaUBKTNV-1" vertex="1">
          <mxGeometry x="300" y="1020" width="40" height="20" as="geometry" />
        </mxCell>
        <mxCell id="CH6t3w1Jz2HbYPV2xJsC-27" value="&lt;pre style=&quot;background-color: rgb(255 , 234 , 246) ; font-family: &amp;#34;consolas&amp;#34; ; font-size: 8.3pt&quot;&gt;&lt;span style=&quot;color: #458383&quot;&gt;disableApproveForUnifiedAmend==true &lt;/span&gt;&lt;/pre&gt;&lt;pre style=&quot;background-color: rgb(255 , 234 , 246) ; font-family: &amp;#34;consolas&amp;#34; ; font-size: 8.3pt&quot;&gt;&lt;font color=&quot;#458383&quot;&gt;OR&lt;/font&gt;&lt;/pre&gt;&lt;pre style=&quot;background-color: rgb(255 , 234 , 246) ; font-family: &amp;#34;consolas&amp;#34; ; font-size: 8.3pt&quot;&gt;&lt;pre style=&quot;font-family: &amp;#34;consolas&amp;#34; ; font-size: 8.3pt&quot;&gt;&lt;span style=&quot;color: #458383&quot;&gt;isReworkLPAmendment&lt;/span&gt;&lt;/pre&gt;&lt;/pre&gt;" style="rhombus;whiteSpace=wrap;html=1;" parent="WIyWlLk6GJQsqaUBKTNV-1" vertex="1">
          <mxGeometry x="73.75" y="1160" width="412.5" height="190" as="geometry" />
        </mxCell>
        <mxCell id="CH6t3w1Jz2HbYPV2xJsC-28" value="" style="endArrow=classic;html=1;" parent="WIyWlLk6GJQsqaUBKTNV-1" edge="1">
          <mxGeometry width="50" height="50" relative="1" as="geometry">
            <mxPoint x="280" y="1094" as="sourcePoint" />
            <mxPoint x="280" y="1160" as="targetPoint" />
          </mxGeometry>
        </mxCell>
        <mxCell id="CH6t3w1Jz2HbYPV2xJsC-29" value="&lt;pre style=&quot;background-color: rgb(255 , 234 , 246) ; font-family: &amp;#34;consolas&amp;#34; ; font-size: 8.3pt&quot;&gt;&lt;span style=&quot;color: #008000 ; background-color: #f7faff ; font-weight: bold&quot;&gt;Approved With Changes -&amp;gt; disabled &lt;/span&gt;&lt;/pre&gt;&lt;pre style=&quot;background-color: rgb(255 , 234 , 246) ; font-family: &amp;#34;consolas&amp;#34; ; font-size: 8.3pt&quot;&gt;&lt;span style=&quot;color: #008000 ; background-color: #f7faff ; font-weight: bold&quot;&gt;and &lt;/span&gt;&lt;/pre&gt;&lt;pre style=&quot;background-color: rgb(255 , 234 , 246) ; font-family: &amp;#34;consolas&amp;#34; ; font-size: 8.3pt&quot;&gt;&lt;pre style=&quot;font-family: &amp;#34;consolas&amp;#34; ; font-size: 8.3pt&quot;&gt;&lt;span style=&quot;color: #008000 ; background-color: #f7faff ; font-weight: bold&quot;&gt;Approved  Without Changes -&amp;gt; disabled &lt;/span&gt;&lt;/pre&gt;&lt;/pre&gt;" style="rounded=1;whiteSpace=wrap;html=1;" parent="WIyWlLk6GJQsqaUBKTNV-1" vertex="1">
          <mxGeometry x="145" y="1430" width="260" height="90" as="geometry" />
        </mxCell>
        <mxCell id="CH6t3w1Jz2HbYPV2xJsC-30" value="" style="endArrow=classic;html=1;exitX=0.5;exitY=1;exitDx=0;exitDy=0;entryX=0.532;entryY=-0.019;entryDx=0;entryDy=0;entryPerimeter=0;" parent="WIyWlLk6GJQsqaUBKTNV-1" source="CH6t3w1Jz2HbYPV2xJsC-27" target="CH6t3w1Jz2HbYPV2xJsC-29" edge="1">
          <mxGeometry width="50" height="50" relative="1" as="geometry">
            <mxPoint x="190" y="1430" as="sourcePoint" />
            <mxPoint x="280" y="1417" as="targetPoint" />
          </mxGeometry>
        </mxCell>
        <mxCell id="CH6t3w1Jz2HbYPV2xJsC-31" value="&lt;pre style=&quot;background-color: rgb(255 , 234 , 246) ; font-family: &amp;#34;consolas&amp;#34; ; font-size: 8.3pt&quot;&gt;&lt;span style=&quot;color: #458383&quot;&gt;pcmApprovalNoteMailSent ==true&lt;/span&gt;&lt;/pre&gt;" style="rhombus;whiteSpace=wrap;html=1;" parent="WIyWlLk6GJQsqaUBKTNV-1" vertex="1">
          <mxGeometry x="157.5" y="1600" width="245" height="130" as="geometry" />
        </mxCell>
        <mxCell id="CH6t3w1Jz2HbYPV2xJsC-34" value="" style="endArrow=classic;html=1;entryX=0.5;entryY=0;entryDx=0;entryDy=0;" parent="WIyWlLk6GJQsqaUBKTNV-1" source="CH6t3w1Jz2HbYPV2xJsC-29" target="CH6t3w1Jz2HbYPV2xJsC-31" edge="1">
          <mxGeometry width="50" height="50" relative="1" as="geometry">
            <mxPoint x="190" y="1600" as="sourcePoint" />
            <mxPoint x="240" y="1550" as="targetPoint" />
          </mxGeometry>
        </mxCell>
        <mxCell id="CH6t3w1Jz2HbYPV2xJsC-35" value="&lt;pre style=&quot;background-color: rgb(255 , 234 , 246) ; font-family: &amp;#34;consolas&amp;#34; ; font-size: 8.3pt&quot;&gt;&lt;span style=&quot;color: rgb(0 , 128 , 0) ; background-color: rgb(247 , 250 , 255) ; font-weight: bold&quot;&gt;Approved With Changes -&amp;gt; disabled &lt;/span&gt;&lt;/pre&gt;&lt;pre style=&quot;background-color: rgb(255 , 234 , 246) ; font-family: &amp;#34;consolas&amp;#34; ; font-size: 8.3pt&quot;&gt;&lt;span style=&quot;color: rgb(0 , 128 , 0) ; background-color: rgb(247 , 250 , 255) ; font-weight: bold&quot;&gt;and &lt;/span&gt;&lt;/pre&gt;&lt;pre style=&quot;background-color: rgb(255 , 234 , 246) ; font-family: &amp;#34;consolas&amp;#34; ; font-size: 8.3pt&quot;&gt;&lt;pre style=&quot;font-family: &amp;#34;consolas&amp;#34; ; font-size: 8.3pt&quot;&gt;&lt;span style=&quot;color: rgb(0 , 128 , 0) ; background-color: rgb(247 , 250 , 255) ; font-weight: bold&quot;&gt;Approved  Without Changes -&amp;gt; disabled &lt;/span&gt;&lt;/pre&gt;&lt;pre style=&quot;font-family: &amp;#34;consolas&amp;#34; ; font-size: 8.3pt&quot;&gt;&lt;span style=&quot;color: rgb(0 , 128 , 0) ; background-color: rgb(247 , 250 , 255) ; font-weight: bold&quot;&gt;and &lt;/span&gt;&lt;/pre&gt;&lt;pre style=&quot;font-family: &amp;#34;consolas&amp;#34; ; font-size: 8.3pt&quot;&gt;&lt;pre style=&quot;font-family: &amp;#34;consolas&amp;#34; ; font-size: 8.3pt&quot;&gt;&lt;span style=&quot;color: #008000 ; background-color: #f7faff ; font-weight: bold&quot;&gt;Disapproved -&amp;gt; disabled &lt;/span&gt;&lt;/pre&gt;&lt;pre style=&quot;font-family: &amp;#34;consolas&amp;#34; ; font-size: 8.3pt&quot;&gt;&lt;span style=&quot;color: #008000 ; background-color: #f7faff ; font-weight: bold&quot;&gt;and &lt;/span&gt;&lt;/pre&gt;&lt;pre style=&quot;font-family: &amp;#34;consolas&amp;#34; ; font-size: 8.3pt&quot;&gt;&lt;span style=&quot;color: #008000 ; background-color: #f7faff ; font-weight: bold&quot;&gt;Obtain Non-Standard Contract Approvals -&amp;gt; disabled &lt;/span&gt;&lt;/pre&gt;&lt;pre style=&quot;font-family: &amp;#34;consolas&amp;#34; ; font-size: 8.3pt&quot;&gt;&lt;span style=&quot;color: #008000 ; background-color: #f7faff ; font-weight: bold&quot;&gt;and &lt;/span&gt;&lt;/pre&gt;&lt;pre style=&quot;font-family: &amp;#34;consolas&amp;#34; ; font-size: 8.3pt&quot;&gt;&lt;span style=&quot;color: #458383&quot;&gt;checkInBtn&lt;/span&gt; -&amp;gt; &lt;span style=&quot;color: #660e7a ; font-weight: bold&quot;&gt;disabled&lt;/span&gt;&lt;/pre&gt;&lt;pre style=&quot;font-family: &amp;#34;consolas&amp;#34; ; font-size: 8.3pt&quot;&gt;&lt;span style=&quot;color: #660e7a ; font-weight: bold&quot;&gt;and &lt;/span&gt;&lt;/pre&gt;&lt;pre style=&quot;font-family: &amp;#34;consolas&amp;#34; ; font-size: 8.3pt&quot;&gt;Pending PCM Approval Note -&amp;gt; checked &lt;span style=&quot;color: #660e7a ; font-weight: bold&quot;&gt; &lt;/span&gt;&lt;/pre&gt;&lt;/pre&gt;&lt;pre style=&quot;font-family: &amp;#34;consolas&amp;#34; ; font-size: 8.3pt&quot;&gt;&lt;span style=&quot;color: rgb(0 , 128 , 0) ; background-color: rgb(247 , 250 , 255) ; font-weight: bold&quot;&gt;&lt;br&gt;&lt;/span&gt;&lt;/pre&gt;&lt;/pre&gt;" style="rounded=1;whiteSpace=wrap;html=1;" parent="WIyWlLk6GJQsqaUBKTNV-1" vertex="1">
          <mxGeometry x="130" y="1790" width="370" height="300" as="geometry" />
        </mxCell>
        <mxCell id="CH6t3w1Jz2HbYPV2xJsC-36" value="yes" style="text;html=1;strokeColor=none;fillColor=none;align=center;verticalAlign=middle;whiteSpace=wrap;rounded=0;" parent="WIyWlLk6GJQsqaUBKTNV-1" vertex="1">
          <mxGeometry x="310" y="1380" width="40" height="20" as="geometry" />
        </mxCell>
        <mxCell id="CH6t3w1Jz2HbYPV2xJsC-37" value="" style="endArrow=classic;html=1;exitX=1;exitY=0.5;exitDx=0;exitDy=0;entryX=1;entryY=0.5;entryDx=0;entryDy=0;" parent="WIyWlLk6GJQsqaUBKTNV-1" source="CH6t3w1Jz2HbYPV2xJsC-27" target="CH6t3w1Jz2HbYPV2xJsC-31" edge="1">
          <mxGeometry width="50" height="50" relative="1" as="geometry">
            <mxPoint x="190" y="1400" as="sourcePoint" />
            <mxPoint x="550" y="1613.3333740234375" as="targetPoint" />
            <Array as="points">
              <mxPoint x="570" y="1490" />
            </Array>
          </mxGeometry>
        </mxCell>
        <mxCell id="CH6t3w1Jz2HbYPV2xJsC-38" value="NO" style="text;html=1;strokeColor=none;fillColor=none;align=center;verticalAlign=middle;whiteSpace=wrap;rounded=0;" parent="WIyWlLk6GJQsqaUBKTNV-1" vertex="1">
          <mxGeometry x="550" y="1340" width="40" height="20" as="geometry" />
        </mxCell>
        <mxCell id="CH6t3w1Jz2HbYPV2xJsC-41" value="&lt;pre style=&quot;background-color: rgb(255 , 234 , 246) ; font-family: &amp;#34;consolas&amp;#34; ; font-size: 8.3pt&quot;&gt;&lt;span style=&quot;color: #458383&quot;&gt;disapprovedByPcm ==true &lt;/span&gt;&lt;/pre&gt;&lt;pre style=&quot;background-color: rgb(255 , 234 , 246) ; font-family: &amp;#34;consolas&amp;#34; ; font-size: 8.3pt&quot;&gt;&lt;span style=&quot;color: #458383&quot;&gt;OR&lt;/span&gt;&lt;/pre&gt;&lt;pre style=&quot;background-color: rgb(255 , 234 , 246) ; font-family: &amp;#34;consolas&amp;#34; ; font-size: 8.3pt&quot;&gt;&lt;span style=&quot;color: rgb(69 , 131 , 131) ; font-size: 8.3pt ; white-space: normal&quot;&gt;&lt;/span&gt;&lt;pre style=&quot;font-family: &amp;#34;consolas&amp;#34; ; font-size: 8.3pt&quot;&gt;&lt;span style=&quot;color: #458383&quot;&gt;disapprovedByPresales ==true&lt;/span&gt;&lt;/pre&gt;&lt;/pre&gt;" style="rhombus;whiteSpace=wrap;html=1;" parent="WIyWlLk6GJQsqaUBKTNV-1" vertex="1">
          <mxGeometry x="170" y="2160" width="311.25" height="160" as="geometry" />
        </mxCell>
        <mxCell id="CH6t3w1Jz2HbYPV2xJsC-42" value="" style="endArrow=classic;html=1;exitX=0.5;exitY=1;exitDx=0;exitDy=0;entryX=0.409;entryY=-0.001;entryDx=0;entryDy=0;entryPerimeter=0;" parent="WIyWlLk6GJQsqaUBKTNV-1" source="CH6t3w1Jz2HbYPV2xJsC-31" target="CH6t3w1Jz2HbYPV2xJsC-35" edge="1">
          <mxGeometry width="50" height="50" relative="1" as="geometry">
            <mxPoint x="240" y="1780" as="sourcePoint" />
            <mxPoint x="290" y="1730" as="targetPoint" />
          </mxGeometry>
        </mxCell>
        <mxCell id="CH6t3w1Jz2HbYPV2xJsC-43" value="yes" style="text;html=1;strokeColor=none;fillColor=none;align=center;verticalAlign=middle;whiteSpace=wrap;rounded=0;" parent="WIyWlLk6GJQsqaUBKTNV-1" vertex="1">
          <mxGeometry x="300" y="1754" width="40" height="20" as="geometry" />
        </mxCell>
        <mxCell id="CH6t3w1Jz2HbYPV2xJsC-44" value="" style="endArrow=classic;html=1;entryX=0.5;entryY=0;entryDx=0;entryDy=0;" parent="WIyWlLk6GJQsqaUBKTNV-1" target="CH6t3w1Jz2HbYPV2xJsC-41" edge="1">
          <mxGeometry width="50" height="50" relative="1" as="geometry">
            <mxPoint x="327" y="2095" as="sourcePoint" />
            <mxPoint x="360" y="2100" as="targetPoint" />
          </mxGeometry>
        </mxCell>
        <mxCell id="CH6t3w1Jz2HbYPV2xJsC-45" value="" style="endArrow=classic;html=1;exitX=0;exitY=0.5;exitDx=0;exitDy=0;" parent="WIyWlLk6GJQsqaUBKTNV-1" source="CH6t3w1Jz2HbYPV2xJsC-31" edge="1">
          <mxGeometry width="50" height="50" relative="1" as="geometry">
            <mxPoint x="190" y="1770" as="sourcePoint" />
            <mxPoint x="170" y="2240.666748046875" as="targetPoint" />
            <Array as="points">
              <mxPoint x="10" y="2000" />
            </Array>
          </mxGeometry>
        </mxCell>
        <mxCell id="CH6t3w1Jz2HbYPV2xJsC-46" value="NO" style="text;html=1;strokeColor=none;fillColor=none;align=center;verticalAlign=middle;whiteSpace=wrap;rounded=0;" parent="WIyWlLk6GJQsqaUBKTNV-1" vertex="1">
          <mxGeometry x="44" y="2000" width="40" height="20" as="geometry" />
        </mxCell>
        <mxCell id="CH6t3w1Jz2HbYPV2xJsC-47" value="&lt;pre style=&quot;background-color: rgb(255 , 234 , 246) ; font-family: &amp;#34;consolas&amp;#34; ; font-size: 8.3pt&quot;&gt;&lt;span style=&quot;color: rgb(0 , 128 , 0) ; background-color: rgb(247 , 250 , 255) ; font-weight: bold&quot;&gt;Approved With Changes -&amp;gt; disabled &lt;/span&gt;&lt;/pre&gt;&lt;pre style=&quot;background-color: rgb(255 , 234 , 246) ; font-family: &amp;#34;consolas&amp;#34; ; font-size: 8.3pt&quot;&gt;&lt;span style=&quot;color: rgb(0 , 128 , 0) ; background-color: rgb(247 , 250 , 255) ; font-weight: bold&quot;&gt;and &lt;/span&gt;&lt;/pre&gt;&lt;pre style=&quot;background-color: rgb(255 , 234 , 246) ; font-family: &amp;#34;consolas&amp;#34; ; font-size: 8.3pt&quot;&gt;&lt;pre style=&quot;font-family: &amp;#34;consolas&amp;#34; ; font-size: 8.3pt&quot;&gt;&lt;span style=&quot;color: rgb(0 , 128 , 0) ; background-color: rgb(247 , 250 , 255) ; font-weight: bold&quot;&gt;Approved  Without Changes -&amp;gt; disabled &lt;/span&gt;&lt;/pre&gt;&lt;/pre&gt;" style="rounded=1;whiteSpace=wrap;html=1;" parent="WIyWlLk6GJQsqaUBKTNV-1" vertex="1">
          <mxGeometry x="180" y="2410" width="270" height="80" as="geometry" />
        </mxCell>
        <mxCell id="CH6t3w1Jz2HbYPV2xJsC-48" value="" style="endArrow=classic;html=1;entryX=0.543;entryY=-0.029;entryDx=0;entryDy=0;entryPerimeter=0;exitX=0.5;exitY=1;exitDx=0;exitDy=0;" parent="WIyWlLk6GJQsqaUBKTNV-1" source="CH6t3w1Jz2HbYPV2xJsC-41" target="CH6t3w1Jz2HbYPV2xJsC-47" edge="1">
          <mxGeometry width="50" height="50" relative="1" as="geometry">
            <mxPoint x="280" y="2390" as="sourcePoint" />
            <mxPoint x="330" y="2340" as="targetPoint" />
          </mxGeometry>
        </mxCell>
        <mxCell id="CH6t3w1Jz2HbYPV2xJsC-49" value="yes" style="text;html=1;strokeColor=none;fillColor=none;align=center;verticalAlign=middle;whiteSpace=wrap;rounded=0;" parent="WIyWlLk6GJQsqaUBKTNV-1" vertex="1">
          <mxGeometry x="355" y="2350" width="40" height="20" as="geometry" />
        </mxCell>
        <mxCell id="CH6t3w1Jz2HbYPV2xJsC-50" value="&lt;pre style=&quot;background-color: rgb(255 , 234 , 246) ; font-family: &amp;#34;consolas&amp;#34; ; font-size: 8.3pt&quot;&gt;&lt;span style=&quot;color: #458383&quot;&gt;expirationDateUpdated&lt;/span&gt;==&lt;span style=&quot;color: #008000 ; font-weight: bold&quot;&gt;&#39;true&#39;&lt;/span&gt;&lt;/pre&gt;" style="rhombus;whiteSpace=wrap;html=1;" parent="WIyWlLk6GJQsqaUBKTNV-1" vertex="1">
          <mxGeometry x="215" y="2540" width="200" height="120" as="geometry" />
        </mxCell>
        <mxCell id="CH6t3w1Jz2HbYPV2xJsC-51" value="" style="endArrow=classic;html=1;exitX=0.5;exitY=1;exitDx=0;exitDy=0;" parent="WIyWlLk6GJQsqaUBKTNV-1" source="CH6t3w1Jz2HbYPV2xJsC-47" target="CH6t3w1Jz2HbYPV2xJsC-50" edge="1">
          <mxGeometry width="50" height="50" relative="1" as="geometry">
            <mxPoint x="190" y="2530" as="sourcePoint" />
            <mxPoint x="240" y="2480" as="targetPoint" />
          </mxGeometry>
        </mxCell>
        <mxCell id="CH6t3w1Jz2HbYPV2xJsC-52" value="" style="endArrow=classic;html=1;exitX=1;exitY=0.5;exitDx=0;exitDy=0;entryX=1;entryY=0.5;entryDx=0;entryDy=0;" parent="WIyWlLk6GJQsqaUBKTNV-1" source="CH6t3w1Jz2HbYPV2xJsC-41" target="CH6t3w1Jz2HbYPV2xJsC-50" edge="1">
          <mxGeometry width="50" height="50" relative="1" as="geometry">
            <mxPoint x="500" y="2470" as="sourcePoint" />
            <mxPoint x="550" y="2420" as="targetPoint" />
            <Array as="points">
              <mxPoint x="590" y="2420" />
            </Array>
          </mxGeometry>
        </mxCell>
        <mxCell id="CH6t3w1Jz2HbYPV2xJsC-54" value="NO" style="text;html=1;strokeColor=none;fillColor=none;align=center;verticalAlign=middle;whiteSpace=wrap;rounded=0;" parent="WIyWlLk6GJQsqaUBKTNV-1" vertex="1">
          <mxGeometry x="500" y="2380" width="40" height="20" as="geometry" />
        </mxCell>
        <mxCell id="nzTa66tJSTVvofhF2rg6-0" value="&lt;pre style=&quot;background-color: rgb(255 , 234 , 246) ; font-family: &amp;#34;consolas&amp;#34; ; font-size: 8.3pt&quot;&gt;&lt;span style=&quot;color: #008000 ; font-weight: bold&quot;&gt;checkListDataLink &lt;/span&gt;&lt;/pre&gt;&lt;pre style=&quot;background-color: rgb(255 , 234 , 246) ; font-family: &amp;#34;consolas&amp;#34; ; font-size: 8.3pt&quot;&gt;&lt;pre style=&quot;font-family: &amp;#34;consolas&amp;#34; ; font-size: 8.3pt&quot;&gt;&lt;span style=&quot;color: #008000 ; font-weight: bold&quot;&gt;taskApproveWithChanges&lt;/span&gt;&lt;/pre&gt;&lt;pre style=&quot;font-family: &amp;#34;consolas&amp;#34; ; font-size: 8.3pt&quot;&gt;&lt;pre style=&quot;font-family: &amp;#34;consolas&amp;#34; ; font-size: 8.3pt&quot;&gt;&lt;span style=&quot;color: #008000 ; font-weight: bold&quot;&gt;taskApproveWithoutChanges&lt;/span&gt;&lt;/pre&gt;&lt;pre style=&quot;font-family: &amp;#34;consolas&amp;#34; ; font-size: 8.3pt&quot;&gt;&lt;span style=&quot;color: #008000 ; font-weight: bold&quot;&gt;taskDisapprove&lt;/span&gt;&lt;/pre&gt;&lt;pre style=&quot;font-family: &amp;#34;consolas&amp;#34; ; font-size: 8.3pt&quot;&gt;&lt;span style=&quot;color: #008000 ; font-weight: bold&quot;&gt;modifyContractSummary&lt;/span&gt;&lt;/pre&gt;&lt;pre style=&quot;font-family: &amp;#34;consolas&amp;#34; ; font-size: 8.3pt&quot;&gt;&lt;span style=&quot;color: #008000 ; font-weight: bold&quot;&gt;profServices6QA&lt;/span&gt;&lt;/pre&gt;&lt;pre style=&quot;font-family: &amp;#34;consolas&amp;#34; ; font-size: 8.3pt&quot;&gt;&lt;span style=&quot;color: #008000 ; font-weight: bold&quot;&gt;manageCriticalExemption&lt;/span&gt;&lt;/pre&gt;&lt;pre style=&quot;font-family: &amp;#34;consolas&amp;#34; ; font-size: 8.3pt&quot;&gt;&lt;span style=&quot;color: #008000 ; font-weight: bold&quot;&gt;sscFallbacks&lt;/span&gt;&lt;/pre&gt;&lt;pre style=&quot;font-family: &amp;#34;consolas&amp;#34; ; font-size: 8.3pt&quot;&gt;&lt;span style=&quot;color: #008000 ; font-weight: bold&quot;&gt;consolidateDocuments&lt;/span&gt;&lt;/pre&gt;&lt;pre style=&quot;font-family: &amp;#34;consolas&amp;#34; ; font-size: 8.3pt&quot;&gt;&lt;span style=&quot;color: #008000 ; font-weight: bold&quot;&gt;decoupledocs&lt;/span&gt;&lt;/pre&gt;&lt;pre style=&quot;font-family: &amp;#34;consolas&amp;#34; ; font-size: 8.3pt&quot;&gt;&lt;span style=&quot;color: #008000 ; font-weight: bold&quot;&gt;convertAcfToAmendment&lt;/span&gt;&lt;/pre&gt;&lt;pre style=&quot;font-family: &amp;#34;consolas&amp;#34; ; font-size: 8.3pt&quot;&gt;&lt;span style=&quot;color: #008000 ; font-weight: bold&quot;&gt;convertAmendmentToAcf&lt;/span&gt;&lt;/pre&gt;&lt;pre style=&quot;font-family: &amp;#34;consolas&amp;#34; ; font-size: 8.3pt&quot;&gt;&lt;span style=&quot;color: #008000 ; font-weight: bold&quot;&gt;addLFServTerms&lt;/span&gt;&lt;/pre&gt;&lt;pre style=&quot;font-family: &amp;#34;consolas&amp;#34; ; font-size: 8.3pt&quot;&gt;&lt;span style=&quot;color: #008000 ; font-weight: bold&quot;&gt;updateExpirationDate&lt;/span&gt;&lt;/pre&gt;&lt;pre style=&quot;font-family: &amp;#34;consolas&amp;#34; ; font-size: 8.3pt&quot;&gt;&lt;span style=&quot;color: #008000 ; font-weight: bold&quot;&gt;addFYIServTerms&lt;/span&gt;&lt;/pre&gt;&lt;pre style=&quot;font-family: &amp;#34;consolas&amp;#34; ; font-size: 8.3pt&quot;&gt;&lt;span style=&quot;color: #008000 ; font-weight: bold&quot;&gt;checkListWorksheetLink&lt;/span&gt;&lt;/pre&gt;&lt;pre style=&quot;font-family: &amp;#34;consolas&amp;#34; ; font-size: 8.3pt&quot;&gt;&lt;span style=&quot;color: #008000 ; font-weight: bold&quot;&gt;regenerateQuoteData&lt;/span&gt;&lt;/pre&gt;&lt;pre style=&quot;font-family: &amp;#34;consolas&amp;#34; ; font-size: 8.3pt&quot;&gt;&lt;span style=&quot;color: #008000 ; font-weight: bold&quot;&gt;reworkLPAmendment&lt;/span&gt;&lt;/pre&gt;&lt;pre style=&quot;font-family: &amp;#34;consolas&amp;#34; ; font-size: 8.3pt&quot;&gt;&lt;span style=&quot;color: #008000 ; font-weight: bold&quot;&gt;&lt;br&gt;&lt;/span&gt;&lt;/pre&gt;&lt;/pre&gt;&lt;pre style=&quot;font-family: &amp;#34;consolas&amp;#34; ; font-size: 8.3pt&quot;&gt;&lt;span style=&quot;color: #008000 ; font-weight: bold&quot;&gt;&lt;br&gt;&lt;/span&gt;&lt;/pre&gt;&lt;/pre&gt;" style="rounded=1;whiteSpace=wrap;html=1;" parent="WIyWlLk6GJQsqaUBKTNV-1" vertex="1">
          <mxGeometry x="170" y="2780" width="320" height="520" as="geometry" />
        </mxCell>
        <mxCell id="nzTa66tJSTVvofhF2rg6-2" value="" style="endArrow=classic;html=1;exitX=0.5;exitY=1;exitDx=0;exitDy=0;entryX=0.454;entryY=-0.007;entryDx=0;entryDy=0;entryPerimeter=0;" parent="WIyWlLk6GJQsqaUBKTNV-1" source="CH6t3w1Jz2HbYPV2xJsC-50" target="nzTa66tJSTVvofhF2rg6-0" edge="1">
          <mxGeometry width="50" height="50" relative="1" as="geometry">
            <mxPoint x="370" y="2800" as="sourcePoint" />
            <mxPoint x="420" y="2750" as="targetPoint" />
          </mxGeometry>
        </mxCell>
        <mxCell id="nzTa66tJSTVvofhF2rg6-3" value="yes" style="text;html=1;strokeColor=none;fillColor=none;align=center;verticalAlign=middle;whiteSpace=wrap;rounded=0;" parent="WIyWlLk6GJQsqaUBKTNV-1" vertex="1">
          <mxGeometry x="330" y="2690" width="40" height="20" as="geometry" />
        </mxCell>
        <mxCell id="nzTa66tJSTVvofhF2rg6-4" value="&lt;pre style=&quot;background-color: rgb(255 , 234 , 246) ; font-family: &amp;#34;consolas&amp;#34; ; font-size: 8.3pt&quot;&gt;&lt;span style=&quot;color: #458383&quot;&gt;disableLinksForNotRedlined&lt;/span&gt;==&lt;span style=&quot;color: #008000 ; font-weight: bold&quot;&gt;&#39;true&#39;&lt;/span&gt;&lt;/pre&gt;" style="rhombus;whiteSpace=wrap;html=1;" parent="WIyWlLk6GJQsqaUBKTNV-1" vertex="1">
          <mxGeometry x="205" y="3410" width="250" height="117" as="geometry" />
        </mxCell>
        <mxCell id="nzTa66tJSTVvofhF2rg6-5" value="" style="endArrow=classic;html=1;exitX=0.5;exitY=1;exitDx=0;exitDy=0;entryX=0.5;entryY=0;entryDx=0;entryDy=0;" parent="WIyWlLk6GJQsqaUBKTNV-1" source="nzTa66tJSTVvofhF2rg6-0" target="nzTa66tJSTVvofhF2rg6-4" edge="1">
          <mxGeometry width="50" height="50" relative="1" as="geometry">
            <mxPoint x="210" y="3390" as="sourcePoint" />
            <mxPoint x="260" y="3340" as="targetPoint" />
          </mxGeometry>
        </mxCell>
        <mxCell id="nzTa66tJSTVvofhF2rg6-6" value="&lt;pre style=&quot;background-color: rgb(255 , 234 , 246) ; font-family: &amp;#34;consolas&amp;#34; ; font-size: 8.3pt&quot;&gt;&lt;span style=&quot;color: #008000 ; font-weight: bold&quot;&gt;checkListDataLink&lt;/span&gt;&lt;/pre&gt;&lt;pre style=&quot;background-color: rgb(255 , 234 , 246) ; font-family: &amp;#34;consolas&amp;#34; ; font-size: 8.3pt&quot;&gt;&lt;pre style=&quot;font-family: &amp;#34;consolas&amp;#34; ; font-size: 8.3pt&quot;&gt;&lt;span style=&quot;color: #008000 ; font-weight: bold&quot;&gt;taskApproveWithChanges&lt;/span&gt;&lt;/pre&gt;&lt;pre style=&quot;font-family: &amp;#34;consolas&amp;#34; ; font-size: 8.3pt&quot;&gt;&lt;span style=&quot;color: #008000 ; font-weight: bold&quot;&gt;taskApproveWithoutChanges&lt;/span&gt;&lt;/pre&gt;&lt;pre style=&quot;font-family: &amp;#34;consolas&amp;#34; ; font-size: 8.3pt&quot;&gt;&lt;span style=&quot;color: #008000 ; font-weight: bold&quot;&gt;taskDisapprove&lt;/span&gt;&lt;/pre&gt;&lt;pre style=&quot;font-family: &amp;#34;consolas&amp;#34; ; font-size: 8.3pt&quot;&gt;&lt;span style=&quot;color: #008000 ; font-weight: bold&quot;&gt;modifyContractSummary&lt;/span&gt;&lt;/pre&gt;&lt;pre style=&quot;font-family: &amp;#34;consolas&amp;#34; ; font-size: 8.3pt&quot;&gt;&lt;span style=&quot;color: #008000 ; font-weight: bold&quot;&gt;profServices6QA&lt;/span&gt;&lt;/pre&gt;&lt;pre style=&quot;font-family: &amp;#34;consolas&amp;#34; ; font-size: 8.3pt&quot;&gt;&lt;span style=&quot;color: #008000 ; font-weight: bold&quot;&gt;manageCriticalExemption&lt;/span&gt;&lt;/pre&gt;&lt;pre style=&quot;font-family: &amp;#34;consolas&amp;#34; ; font-size: 8.3pt&quot;&gt;&lt;span style=&quot;color: #008000 ; font-weight: bold&quot;&gt;sscFallbacks&lt;/span&gt;&lt;/pre&gt;&lt;pre style=&quot;font-family: &amp;#34;consolas&amp;#34; ; font-size: 8.3pt&quot;&gt;&lt;span style=&quot;color: #008000 ; font-weight: bold&quot;&gt;consolidateDocuments&lt;/span&gt;&lt;/pre&gt;&lt;pre style=&quot;font-family: &amp;#34;consolas&amp;#34; ; font-size: 8.3pt&quot;&gt;&lt;span style=&quot;color: #008000 ; font-weight: bold&quot;&gt;decoupledocs&lt;/span&gt;&lt;/pre&gt;&lt;pre style=&quot;font-family: &amp;#34;consolas&amp;#34; ; font-size: 8.3pt&quot;&gt;&lt;span style=&quot;color: #008000 ; font-weight: bold&quot;&gt;convertAcfToAmendment&lt;/span&gt;&lt;/pre&gt;&lt;pre style=&quot;font-family: &amp;#34;consolas&amp;#34; ; font-size: 8.3pt&quot;&gt;&lt;span style=&quot;color: #008000 ; font-weight: bold&quot;&gt;convertAmendmentToAcf&lt;/span&gt;&lt;/pre&gt;&lt;pre style=&quot;font-family: &amp;#34;consolas&amp;#34; ; font-size: 8.3pt&quot;&gt;&lt;span style=&quot;color: #008000 ; font-weight: bold&quot;&gt;addLFServTerms&lt;/span&gt;&lt;/pre&gt;&lt;pre style=&quot;font-family: &amp;#34;consolas&amp;#34; ; font-size: 8.3pt&quot;&gt;&lt;span style=&quot;color: #008000 ; font-weight: bold&quot;&gt;updateExpirationDate&lt;/span&gt;&lt;/pre&gt;&lt;pre style=&quot;font-family: &amp;#34;consolas&amp;#34; ; font-size: 8.3pt&quot;&gt;&lt;span style=&quot;color: #008000 ; font-weight: bold&quot;&gt;addFYIServTerms&lt;/span&gt;&lt;/pre&gt;&lt;pre style=&quot;font-family: &amp;#34;consolas&amp;#34; ; font-size: 8.3pt&quot;&gt;&lt;span style=&quot;color: #008000 ; font-weight: bold&quot;&gt;checkListWorksheetLink&lt;/span&gt;&lt;/pre&gt;&lt;pre style=&quot;font-family: &amp;#34;consolas&amp;#34; ; font-size: 8.3pt&quot;&gt;&lt;span style=&quot;color: #008000 ; font-weight: bold&quot;&gt;regenerateQuoteData&lt;/span&gt;&lt;/pre&gt;&lt;/pre&gt;" style="rounded=1;whiteSpace=wrap;html=1;" parent="WIyWlLk6GJQsqaUBKTNV-1" vertex="1">
          <mxGeometry x="147" y="3620" width="366" height="440" as="geometry" />
        </mxCell>
        <mxCell id="nzTa66tJSTVvofhF2rg6-7" value="" style="endArrow=classic;html=1;entryX=0.5;entryY=0;entryDx=0;entryDy=0;" parent="WIyWlLk6GJQsqaUBKTNV-1" target="nzTa66tJSTVvofhF2rg6-6" edge="1">
          <mxGeometry width="50" height="50" relative="1" as="geometry">
            <mxPoint x="330" y="3530" as="sourcePoint" />
            <mxPoint x="180" y="3550" as="targetPoint" />
          </mxGeometry>
        </mxCell>
        <mxCell id="nzTa66tJSTVvofhF2rg6-8" value="yes" style="text;html=1;strokeColor=none;fillColor=none;align=center;verticalAlign=middle;whiteSpace=wrap;rounded=0;" parent="WIyWlLk6GJQsqaUBKTNV-1" vertex="1">
          <mxGeometry x="363" y="3560" width="40" height="20" as="geometry" />
        </mxCell>
        <mxCell id="nzTa66tJSTVvofhF2rg6-9" value="&lt;pre style=&quot;background-color: rgb(255 , 234 , 246) ; font-family: &amp;#34;consolas&amp;#34; ; font-size: 8.3pt&quot;&gt;&lt;span style=&quot;color: #458383&quot;&gt;enableApproveLinksByPcmPsbTasks&lt;/span&gt;==&lt;span style=&quot;color: #008000 ; font-weight: bold&quot;&gt;&#39;false&#39;&lt;/span&gt;&lt;/pre&gt;" style="rhombus;whiteSpace=wrap;html=1;" parent="WIyWlLk6GJQsqaUBKTNV-1" vertex="1">
          <mxGeometry x="150.63" y="4180" width="350" height="100" as="geometry" />
        </mxCell>
        <mxCell id="nzTa66tJSTVvofhF2rg6-10" value="" style="endArrow=classic;html=1;exitX=0.5;exitY=1;exitDx=0;exitDy=0;entryX=0.5;entryY=0;entryDx=0;entryDy=0;" parent="WIyWlLk6GJQsqaUBKTNV-1" source="nzTa66tJSTVvofhF2rg6-6" target="nzTa66tJSTVvofhF2rg6-9" edge="1">
          <mxGeometry width="50" height="50" relative="1" as="geometry">
            <mxPoint x="10" y="4190" as="sourcePoint" />
            <mxPoint x="60" y="4140" as="targetPoint" />
          </mxGeometry>
        </mxCell>
        <mxCell id="nzTa66tJSTVvofhF2rg6-11" value="" style="endArrow=classic;html=1;exitX=1;exitY=0.5;exitDx=0;exitDy=0;" parent="WIyWlLk6GJQsqaUBKTNV-1" source="nzTa66tJSTVvofhF2rg6-4" edge="1">
          <mxGeometry width="50" height="50" relative="1" as="geometry">
            <mxPoint x="600" y="3620" as="sourcePoint" />
            <mxPoint x="500" y="4230" as="targetPoint" />
            <Array as="points">
              <mxPoint x="730" y="3740" />
            </Array>
          </mxGeometry>
        </mxCell>
        <mxCell id="nzTa66tJSTVvofhF2rg6-12" value="NO" style="text;html=1;strokeColor=none;fillColor=none;align=center;verticalAlign=middle;whiteSpace=wrap;rounded=0;" parent="WIyWlLk6GJQsqaUBKTNV-1" vertex="1">
          <mxGeometry x="650" y="3740" width="40" height="20" as="geometry" />
        </mxCell>
        <mxCell id="nzTa66tJSTVvofhF2rg6-13" value="&lt;pre style=&quot;background-color: rgb(255 , 234 , 246) ; font-family: &amp;#34;consolas&amp;#34; ; font-size: 8.3pt&quot;&gt;&lt;span style=&quot;color: rgb(0 , 128 , 0) ; font-weight: bold&quot;&gt;checkListDataLink &lt;/span&gt;&lt;/pre&gt;&lt;pre style=&quot;background-color: rgb(255 , 234 , 246) ; font-family: &amp;#34;consolas&amp;#34; ; font-size: 8.3pt&quot;&gt;&lt;pre style=&quot;font-size: 8.3pt ; font-family: &amp;#34;consolas&amp;#34;&quot;&gt;&lt;span style=&quot;color: rgb(0 , 128 , 0) ; font-weight: bold&quot;&gt;taskApproveWithChanges&lt;/span&gt;&lt;/pre&gt;&lt;pre style=&quot;font-size: 8.3pt ; font-family: &amp;#34;consolas&amp;#34;&quot;&gt;&lt;pre style=&quot;font-family: &amp;#34;consolas&amp;#34; ; font-size: 8.3pt&quot;&gt;&lt;span style=&quot;color: rgb(0 , 128 , 0) ; font-weight: bold&quot;&gt;taskApproveWithoutChanges&lt;/span&gt;&lt;/pre&gt;&lt;pre style=&quot;font-family: &amp;#34;consolas&amp;#34; ; font-size: 8.3pt&quot;&gt;&lt;span style=&quot;color: rgb(0 , 128 , 0) ; font-weight: bold&quot;&gt;taskDisapprove&lt;/span&gt;&lt;/pre&gt;&lt;pre style=&quot;font-family: &amp;#34;consolas&amp;#34; ; font-size: 8.3pt&quot;&gt;&lt;span style=&quot;color: rgb(0 , 128 , 0) ; font-weight: bold&quot;&gt;modifyContractSummary&lt;/span&gt;&lt;/pre&gt;&lt;pre style=&quot;font-family: &amp;#34;consolas&amp;#34; ; font-size: 8.3pt&quot;&gt;&lt;span style=&quot;color: rgb(0 , 128 , 0) ; font-weight: bold&quot;&gt;profServices6QA&lt;/span&gt;&lt;/pre&gt;&lt;pre style=&quot;font-family: &amp;#34;consolas&amp;#34; ; font-size: 8.3pt&quot;&gt;&lt;span style=&quot;color: rgb(0 , 128 , 0) ; font-weight: bold&quot;&gt;manageCriticalExemption&lt;/span&gt;&lt;/pre&gt;&lt;pre style=&quot;font-family: &amp;#34;consolas&amp;#34; ; font-size: 8.3pt&quot;&gt;&lt;span style=&quot;color: rgb(0 , 128 , 0) ; font-weight: bold&quot;&gt;sscFallbacks&lt;/span&gt;&lt;/pre&gt;&lt;pre style=&quot;font-family: &amp;#34;consolas&amp;#34; ; font-size: 8.3pt&quot;&gt;&lt;span style=&quot;color: rgb(0 , 128 , 0) ; font-weight: bold&quot;&gt;consolidateDocuments&lt;/span&gt;&lt;/pre&gt;&lt;pre style=&quot;font-family: &amp;#34;consolas&amp;#34; ; font-size: 8.3pt&quot;&gt;&lt;span style=&quot;color: rgb(0 , 128 , 0) ; font-weight: bold&quot;&gt;decoupledocs&lt;/span&gt;&lt;/pre&gt;&lt;pre style=&quot;font-family: &amp;#34;consolas&amp;#34; ; font-size: 8.3pt&quot;&gt;&lt;span style=&quot;color: rgb(0 , 128 , 0) ; font-weight: bold&quot;&gt;convertAcfToAmendment&lt;/span&gt;&lt;/pre&gt;&lt;pre style=&quot;font-family: &amp;#34;consolas&amp;#34; ; font-size: 8.3pt&quot;&gt;&lt;span style=&quot;color: rgb(0 , 128 , 0) ; font-weight: bold&quot;&gt;convertAmendmentToAcf&lt;/span&gt;&lt;/pre&gt;&lt;pre style=&quot;font-family: &amp;#34;consolas&amp;#34; ; font-size: 8.3pt&quot;&gt;&lt;span style=&quot;color: rgb(0 , 128 , 0) ; font-weight: bold&quot;&gt;addLFServTerms&lt;/span&gt;&lt;/pre&gt;&lt;pre style=&quot;font-family: &amp;#34;consolas&amp;#34; ; font-size: 8.3pt&quot;&gt;&lt;span style=&quot;color: rgb(0 , 128 , 0) ; font-weight: bold&quot;&gt;updateExpirationDate&lt;/span&gt;&lt;/pre&gt;&lt;pre style=&quot;font-family: &amp;#34;consolas&amp;#34; ; font-size: 8.3pt&quot;&gt;&lt;span style=&quot;color: rgb(0 , 128 , 0) ; font-weight: bold&quot;&gt;addFYIServTerms&lt;/span&gt;&lt;/pre&gt;&lt;pre style=&quot;font-family: &amp;#34;consolas&amp;#34; ; font-size: 8.3pt&quot;&gt;&lt;span style=&quot;color: rgb(0 , 128 , 0) ; font-weight: bold&quot;&gt;checkListWorksheetLink&lt;/span&gt;&lt;/pre&gt;&lt;pre style=&quot;font-family: &amp;#34;consolas&amp;#34; ; font-size: 8.3pt&quot;&gt;&lt;span style=&quot;color: rgb(0 , 128 , 0) ; font-weight: bold&quot;&gt;regenerateQuoteData&lt;/span&gt;&lt;/pre&gt;&lt;pre style=&quot;font-family: &amp;#34;consolas&amp;#34; ; font-size: 8.3pt&quot;&gt;&lt;span style=&quot;color: rgb(0 , 128 , 0) ; font-weight: bold&quot;&gt;reworkLPAmendment&lt;/span&gt;&lt;/pre&gt;&lt;pre style=&quot;font-family: &amp;#34;consolas&amp;#34; ; font-size: 8.3pt&quot;&gt;&lt;span style=&quot;color: rgb(0 , 128 , 0) ; font-weight: bold&quot;&gt;+&lt;/span&gt;&lt;/pre&gt;&lt;pre style=&quot;font-family: &amp;#34;consolas&amp;#34; ; font-size: 8.3pt&quot;&gt;&lt;pre style=&quot;font-family: &amp;#34;consolas&amp;#34; ; font-size: 8.3pt&quot;&gt;&lt;span style=&quot;color: #458383&quot;&gt;checkInBtn&lt;/span&gt;.&lt;span style=&quot;color: #660e7a ; font-weight: bold&quot;&gt;disabled &lt;/span&gt;= &lt;span style=&quot;color: #000080 ; font-weight: bold&quot;&gt;true&lt;/span&gt;&lt;/pre&gt;&lt;/pre&gt;&lt;pre style=&quot;font-family: &amp;#34;consolas&amp;#34; ; font-size: 8.3pt&quot;&gt;&lt;span style=&quot;color: rgb(0 , 128 , 0) ; font-weight: bold&quot;&gt;&lt;br&gt;&lt;/span&gt;&lt;/pre&gt;&lt;/pre&gt;&lt;/pre&gt;" style="rounded=1;whiteSpace=wrap;html=1;" parent="WIyWlLk6GJQsqaUBKTNV-1" vertex="1">
          <mxGeometry x="135" y="4400" width="415" height="560" as="geometry" />
        </mxCell>
        <mxCell id="CzA6qQBvrYHd6hkLeIIJ-1" value="" style="endArrow=classic;html=1;exitX=0.5;exitY=1;exitDx=0;exitDy=0;entryX=0.446;entryY=-0.002;entryDx=0;entryDy=0;entryPerimeter=0;" edge="1" parent="WIyWlLk6GJQsqaUBKTNV-1" source="nzTa66tJSTVvofhF2rg6-9" target="nzTa66tJSTVvofhF2rg6-13">
          <mxGeometry width="50" height="50" relative="1" as="geometry">
            <mxPoint x="370" y="4340" as="sourcePoint" />
            <mxPoint x="420" y="4290" as="targetPoint" />
          </mxGeometry>
        </mxCell>
        <mxCell id="CzA6qQBvrYHd6hkLeIIJ-2" value="yes" style="text;html=1;strokeColor=none;fillColor=none;align=center;verticalAlign=middle;whiteSpace=wrap;rounded=0;" vertex="1" parent="WIyWlLk6GJQsqaUBKTNV-1">
          <mxGeometry x="270" y="4340" width="40" height="20" as="geometry" />
        </mxCell>
        <mxCell id="CzA6qQBvrYHd6hkLeIIJ-3" value="&lt;pre style=&quot;background-color: rgb(255 , 234 , 246) ; font-family: &amp;#34;consolas&amp;#34; ; font-size: 8.3pt&quot;&gt;&lt;span style=&quot;color: #008000 ; font-weight: bold&quot;&gt;unifiedContractSwitch==true&lt;/span&gt;&lt;/pre&gt;" style="rhombus;whiteSpace=wrap;html=1;" vertex="1" parent="WIyWlLk6GJQsqaUBKTNV-1">
          <mxGeometry x="234.5" y="5030" width="216" height="180" as="geometry" />
        </mxCell>
        <mxCell id="CzA6qQBvrYHd6hkLeIIJ-4" value="&lt;pre style=&quot;background-color: rgb(255 , 234 , 246) ; font-family: &amp;#34;consolas&amp;#34; ; font-size: 8.3pt&quot;&gt;&lt;span style=&quot;color: #458383&quot;&gt;(&lt;/span&gt;:btnGo)checkInBtn&lt;span style=&quot;font-size: 8.3pt&quot;&gt;.&lt;/span&gt;&lt;span style=&quot;font-size: 8.3pt ; color: rgb(102 , 14 , 122) ; font-weight: bold&quot;&gt;style&lt;/span&gt;&lt;span style=&quot;font-size: 8.3pt&quot;&gt;.&lt;/span&gt;&lt;span style=&quot;font-size: 8.3pt ; color: rgb(102 , 14 , 122) ; font-weight: bold&quot;&gt;display &lt;/span&gt;&lt;span style=&quot;font-size: 8.3pt&quot;&gt;= &lt;/span&gt;&lt;span style=&quot;font-size: 8.3pt ; color: rgb(0 , 128 , 0) ; font-weight: bold&quot;&gt;&quot;none&quot;&lt;/span&gt;&lt;/pre&gt;" style="rounded=1;whiteSpace=wrap;html=1;" vertex="1" parent="WIyWlLk6GJQsqaUBKTNV-1">
          <mxGeometry x="225" y="5290" width="250" height="50" as="geometry" />
        </mxCell>
        <mxCell id="CzA6qQBvrYHd6hkLeIIJ-5" value="" style="endArrow=classic;html=1;exitX=0.481;exitY=1.001;exitDx=0;exitDy=0;exitPerimeter=0;entryX=0.5;entryY=0;entryDx=0;entryDy=0;" edge="1" parent="WIyWlLk6GJQsqaUBKTNV-1" source="nzTa66tJSTVvofhF2rg6-13" target="CzA6qQBvrYHd6hkLeIIJ-3">
          <mxGeometry width="50" height="50" relative="1" as="geometry">
            <mxPoint x="300" y="5020" as="sourcePoint" />
            <mxPoint x="350" y="4970" as="targetPoint" />
          </mxGeometry>
        </mxCell>
        <mxCell id="CzA6qQBvrYHd6hkLeIIJ-7" value="" style="endArrow=classic;html=1;entryX=0;entryY=0.5;entryDx=0;entryDy=0;" edge="1" parent="WIyWlLk6GJQsqaUBKTNV-1" target="CzA6qQBvrYHd6hkLeIIJ-3">
          <mxGeometry width="50" height="50" relative="1" as="geometry">
            <mxPoint x="150" y="4230" as="sourcePoint" />
            <mxPoint x="60" y="4280" as="targetPoint" />
            <Array as="points">
              <mxPoint x="30" y="4850" />
            </Array>
          </mxGeometry>
        </mxCell>
        <mxCell id="CzA6qQBvrYHd6hkLeIIJ-8" value="No" style="text;html=1;strokeColor=none;fillColor=none;align=center;verticalAlign=middle;whiteSpace=wrap;rounded=0;" vertex="1" parent="WIyWlLk6GJQsqaUBKTNV-1">
          <mxGeometry x="44" y="4830" width="40" height="20" as="geometry" />
        </mxCell>
        <mxCell id="CzA6qQBvrYHd6hkLeIIJ-9" value="" style="endArrow=classic;html=1;exitX=0.5;exitY=1;exitDx=0;exitDy=0;" edge="1" parent="WIyWlLk6GJQsqaUBKTNV-1" source="CzA6qQBvrYHd6hkLeIIJ-3">
          <mxGeometry width="50" height="50" relative="1" as="geometry">
            <mxPoint x="370" y="5250" as="sourcePoint" />
            <mxPoint x="343" y="5284" as="targetPoint" />
          </mxGeometry>
        </mxCell>
        <mxCell id="CzA6qQBvrYHd6hkLeIIJ-10" value="yes" style="text;html=1;strokeColor=none;fillColor=none;align=center;verticalAlign=middle;whiteSpace=wrap;rounded=0;" vertex="1" parent="WIyWlLk6GJQsqaUBKTNV-1">
          <mxGeometry x="365" y="5241" width="40" height="20" as="geometry" />
        </mxCell>
        <mxCell id="CzA6qQBvrYHd6hkLeIIJ-11" value="&lt;pre style=&quot;background-color: rgb(255 , 234 , 246) ; font-family: &amp;#34;consolas&amp;#34; ; font-size: 8.3pt&quot;&gt;&lt;span style=&quot;color: #008000 ; font-weight: bold&quot;&gt;preSalesCompleted ==true&lt;/span&gt;&lt;/pre&gt;" style="rhombus;whiteSpace=wrap;html=1;" vertex="1" parent="WIyWlLk6GJQsqaUBKTNV-1">
          <mxGeometry x="240.5" y="5420" width="210" height="120" as="geometry" />
        </mxCell>
        <mxCell id="CzA6qQBvrYHd6hkLeIIJ-12" value="" style="endArrow=classic;html=1;exitX=0.5;exitY=1;exitDx=0;exitDy=0;entryX=0.5;entryY=0;entryDx=0;entryDy=0;" edge="1" parent="WIyWlLk6GJQsqaUBKTNV-1" source="CzA6qQBvrYHd6hkLeIIJ-4" target="CzA6qQBvrYHd6hkLeIIJ-11">
          <mxGeometry width="50" height="50" relative="1" as="geometry">
            <mxPoint x="260" y="5410" as="sourcePoint" />
            <mxPoint x="310" y="5360" as="targetPoint" />
          </mxGeometry>
        </mxCell>
        <mxCell id="CzA6qQBvrYHd6hkLeIIJ-13" value="" style="endArrow=classic;html=1;exitX=1;exitY=0.5;exitDx=0;exitDy=0;entryX=1;entryY=0.5;entryDx=0;entryDy=0;" edge="1" parent="WIyWlLk6GJQsqaUBKTNV-1" source="CzA6qQBvrYHd6hkLeIIJ-3" target="CzA6qQBvrYHd6hkLeIIJ-11">
          <mxGeometry width="50" height="50" relative="1" as="geometry">
            <mxPoint x="570" y="5330" as="sourcePoint" />
            <mxPoint x="620" y="5280" as="targetPoint" />
            <Array as="points">
              <mxPoint x="660" y="5270" />
            </Array>
          </mxGeometry>
        </mxCell>
        <mxCell id="CzA6qQBvrYHd6hkLeIIJ-14" value="No" style="text;html=1;strokeColor=none;fillColor=none;align=center;verticalAlign=middle;whiteSpace=wrap;rounded=0;" vertex="1" parent="WIyWlLk6GJQsqaUBKTNV-1">
          <mxGeometry x="590" y="5261" width="40" height="20" as="geometry" />
        </mxCell>
        <mxCell id="CzA6qQBvrYHd6hkLeIIJ-15" value="&lt;pre style=&quot;background-color: rgb(255 , 234 , 246) ; font-family: &amp;#34;consolas&amp;#34; ; font-size: 8.3pt&quot;&gt;&lt;span style=&quot;color: #458383&quot;&gt;(&lt;/span&gt;:btnGo) checkInBtn&lt;span style=&quot;font-size: 8.3pt&quot;&gt;.&lt;/span&gt;&lt;span style=&quot;font-size: 8.3pt ; color: rgb(102 , 14 , 122) ; font-weight: bold&quot;&gt;style&lt;/span&gt;&lt;span style=&quot;font-size: 8.3pt&quot;&gt;.&lt;/span&gt;&lt;span style=&quot;font-size: 8.3pt ; color: rgb(102 , 14 , 122) ; font-weight: bold&quot;&gt;display &lt;/span&gt;&lt;span style=&quot;font-size: 8.3pt&quot;&gt;= &lt;/span&gt;&lt;span style=&quot;font-size: 8.3pt ; color: rgb(0 , 128 , 0) ; font-weight: bold&quot;&gt;&quot;inline-block&quot;&lt;/span&gt;&lt;span style=&quot;font-size: 8.3pt&quot;&gt;;&lt;/span&gt;&lt;/pre&gt;&lt;pre style=&quot;background-color: rgb(255 , 234 , 246) ; font-family: &amp;#34;consolas&amp;#34; ; font-size: 8.3pt&quot;&gt;(&lt;span style=&quot;font-size: 8.3pt ; white-space: normal&quot;&gt;:btnGo2)&amp;nbsp;&lt;/span&gt;&lt;span style=&quot;font-family: &amp;#34;consolas&amp;#34; ; font-size: 8.3pt ; white-space: normal ; color: rgb(69 , 131 , 131)&quot;&gt;checkInBtn&lt;/span&gt;&lt;span style=&quot;font-family: &amp;#34;consolas&amp;#34; ; font-size: 8.3pt ; white-space: normal&quot;&gt;.&lt;/span&gt;&lt;span style=&quot;font-family: &amp;#34;consolas&amp;#34; ; font-size: 8.3pt ; white-space: normal ; color: rgb(102 , 14 , 122) ; font-weight: bold&quot;&gt;style&lt;/span&gt;&lt;span style=&quot;font-family: &amp;#34;consolas&amp;#34; ; font-size: 8.3pt ; white-space: normal&quot;&gt;.&lt;/span&gt;&lt;span style=&quot;font-family: &amp;#34;consolas&amp;#34; ; font-size: 8.3pt ; white-space: normal ; color: rgb(102 , 14 , 122) ; font-weight: bold&quot;&gt;display &lt;/span&gt;&lt;span style=&quot;font-family: &amp;#34;consolas&amp;#34; ; font-size: 8.3pt ; white-space: normal&quot;&gt;= &lt;/span&gt;&lt;span style=&quot;font-family: &amp;#34;consolas&amp;#34; ; font-size: 8.3pt ; white-space: normal ; color: rgb(0 , 128 , 0) ; font-weight: bold&quot;&gt;&quot;none&quot;&lt;/span&gt;&lt;span style=&quot;font-family: &amp;#34;consolas&amp;#34; ; font-size: 8.3pt ; white-space: normal&quot;&gt;;&lt;/span&gt;&lt;/pre&gt;" style="rounded=1;whiteSpace=wrap;html=1;" vertex="1" parent="WIyWlLk6GJQsqaUBKTNV-1">
          <mxGeometry x="205" y="5620" width="335" height="60" as="geometry" />
        </mxCell>
      </root>
    </mxGraphModel>
  </diagram>
</mxfile>
